# xmcd
#
# Track frame offsets: 
#        150
#        13150
#        28845
#        44475
#        60960
#        77475
#        91090
#        107070
#        120210
#        135200
#
# Disc length: 1986 seconds
#
# Revision: 0
# Processed by: cddbd v1.5.2PL0 Copyright (c) Steve Scherf et al.
# Submitted via: ExactAudioCopy v1.0b1
#
DISCID=6b07c00a
DTITLE=nic niranam - yipsib
DYEAR=1900
DGENRE=
TTITLE0=ฝากรักไว้ในเพลง
TTITLE1=รอยไถแปร
TTITLE2=กลิ่นโคลนสาบควาย
TTITLE3=เดือนเพ็ญ
TTITLE4=บ้านนาป่าร้าง
TTITLE5=แม่แตงร่มใบ
TTITLE6=ชายผั่งโขง
TTITLE7=เบิ่งโขง
TTITLE8=บางกอกน้อย
TTITLE9=หวยใต้ดิน
EXTD=
EXTT0=
EXTT1=
EXTT2=
EXTT3=
EXTT4=
EXTT5=
EXTT6=
EXTT7=
EXTT8=
EXTT9=
PLAYORDER=
